<svg width="40" height="40" viewBox="0 0 40 40" fill="none" xmlns="http://www.w3.org/2000/svg"><rect fill="#22A079" width="40" height="40" rx="12"/><g transform="translate(4 4)"><circle cx="16" cy="16" r="14" fill="#fff"/><svg width="32" height="32" viewBox="0 0 40 40" xmlns="http://www.w3.org/2000/svg"><circle cx="20" cy="20" r="20" fill="#22A079"/><path fill-rule="evenodd" clip-rule="evenodd" d="M22.237 21.393v-.002c-.125.009-.771.048-2.212.048-1.15 0-1.96-.035-2.245-.048v.003c-4.428-.195-7.733-.966-7.733-1.888 0-.922 3.305-1.693 7.733-1.891v3.011c.29.02 1.119.07 2.264.07 1.375 0 2.064-.057 2.193-.068v-3.01c4.419.196 7.716.967 7.716 1.888 0 .922-3.297 1.691-7.716 1.887zm0-4.089V14.61h6.166V10.5h-16.79v4.11h6.167v2.693C12.77 17.533 9 18.526 9 19.715c0 1.19 3.769 2.181 8.78 2.413v8.635h4.457v-8.638c5.003-.23 8.763-1.222 8.763-2.41 0-1.188-3.76-2.18-8.763-2.41" fill="#fff"/></svg></g></svg>